<svg width="491" height="350" viewBox="0 0 491 350" fill="none" xmlns="http://www.w3.org/2000/svg">
<g clip-path="url(#clip0_649_1316)">
<path d="M353.564 0.371992C353.753 0.388053 353.943 0.404115 354.139 0.420664C359.494 1.02431 365.117 6.92845 368.373 10.8213C368.655 11.1795 368.934 11.5401 369.211 11.9023C369.303 12.0202 369.395 12.1381 369.49 12.2596C379.891 25.6284 384.562 43.1381 395.639 124.183C395.658 124.549 395.658 124.549 395.677 124.923C395.734 126.064 395.788 127.205 395.836 128.346C395.854 128.747 395.873 129.147 395.892 129.548C395.898 129.726 395.905 129.905 395.911 130.089C395.985 131.579 396.418 132.567 397.236 133.824C397.359 134.014 397.482 134.204 397.609 134.4C397.739 134.6 397.869 134.799 398.004 135.004C398.14 135.215 398.276 135.425 398.412 135.635C398.68 136.05 398.948 136.464 399.216 136.878C402.814 142.441 406.179 148.176 409.203 154.07C409.426 154.499 409.652 154.926 409.882 155.352C416.928 168.418 422.315 182.519 425.958 196.898C426.01 197.103 426.01 197.103 426.063 197.312C426.477 198.939 426.831 200.565 427.117 202.22C427.175 202.542 427.233 202.864 427.292 203.186C427.403 203.797 427.5 204.409 427.589 205.024C427.818 206.392 428.057 207.338 429.201 208.201C429.538 208.427 429.879 208.638 430.23 208.842C432.404 210.121 433.941 212.223 435.448 214.194C435.523 214.292 435.598 214.39 435.676 214.491C435.9 214.798 435.9 214.798 436.112 215.137C436.707 216.071 437.319 216.422 438.334 216.832C444.357 219.475 448.433 224.807 450.794 230.814C451.066 231.544 451.312 232.281 451.548 233.023C451.597 233.175 451.645 233.326 451.696 233.482C452.358 235.591 452.81 237.726 453.178 239.904C453.215 240.117 453.252 240.329 453.29 240.547C454.005 245.058 454.018 249.648 454.045 254.204C454.115 265.224 455.11 276.005 457.044 286.855C459.125 298.54 460.793 310.289 461.922 322.104C461.94 322.289 461.958 322.475 461.976 322.665C462.419 327.241 462.648 331.835 462.911 336.424C463.101 336.423 463.101 336.423 463.294 336.422C466.371 336.406 469.448 336.393 472.525 336.386C474.013 336.382 475.501 336.376 476.989 336.368C478.287 336.361 479.584 336.356 480.881 336.354C481.568 336.353 482.254 336.351 482.941 336.345C483.708 336.339 484.476 336.339 485.243 336.34C485.47 336.337 485.696 336.334 485.929 336.331C487.494 336.339 488.457 336.58 489.689 337.586C490.657 338.768 490.985 339.736 490.924 341.278C490.757 342.552 490.166 343.35 489.209 344.175C487.778 345.046 486.462 345.058 484.825 345.049C484.571 345.05 484.317 345.05 484.063 345.051C483.363 345.054 482.664 345.052 481.964 345.05C481.201 345.049 480.437 345.051 479.674 345.052C478.331 345.054 476.987 345.054 475.644 345.053C473.632 345.051 471.621 345.052 469.61 345.054C466.182 345.057 462.755 345.058 459.327 345.057C455.852 345.056 452.378 345.056 448.903 345.058C448.574 345.058 448.574 345.058 448.239 345.058C447.121 345.059 446.003 345.059 444.885 345.06C442.592 345.061 440.3 345.062 438.007 345.063C437.776 345.063 437.545 345.063 437.307 345.063C432.232 345.066 427.157 345.066 422.082 345.067C413.562 345.068 405.042 345.07 396.522 345.075C396.335 345.075 396.335 345.075 396.145 345.075C393.109 345.077 390.073 345.079 387.036 345.08C382.276 345.083 377.515 345.086 372.754 345.089C372.234 345.089 371.714 345.09 371.194 345.09C358.931 345.097 346.667 345.103 334.404 345.108C333.726 345.108 333.048 345.109 332.37 345.109C319.835 345.114 307.3 345.119 294.765 345.121C294.357 345.121 293.948 345.122 293.54 345.122C290.684 345.122 287.829 345.123 284.974 345.123C284.566 345.124 284.159 345.124 283.752 345.124C283.481 345.124 283.209 345.124 282.938 345.124C282.804 345.124 282.669 345.124 282.531 345.124C281.853 345.124 281.175 345.124 280.497 345.124C267.977 345.127 255.456 345.131 242.935 345.138C242.675 345.139 242.415 345.139 242.155 345.139C236.886 345.142 231.616 345.146 226.346 345.149C223.818 345.151 221.289 345.153 218.761 345.155C218.51 345.155 218.258 345.155 218.007 345.155C209.862 345.161 201.717 345.162 193.572 345.161C185.497 345.16 177.421 345.163 169.346 345.171C168.23 345.172 167.115 345.173 165.999 345.174C165.781 345.174 165.562 345.175 165.337 345.175C161.872 345.178 158.407 345.177 154.942 345.174C151.536 345.171 148.131 345.173 144.725 345.179C142.728 345.183 140.73 345.183 138.733 345.178C137.406 345.175 136.08 345.177 134.754 345.182C134.002 345.185 133.25 345.186 132.497 345.182C128.38 345.138 128.38 345.138 124.623 346.653C119.447 348.777 113.842 348.389 108.543 347.047C106.952 346.608 106.952 346.608 105.43 347.109C105.265 347.211 105.265 347.211 105.098 347.315C100.239 350.111 93.8998 350.775 88.4841 349.442C86.358 348.833 84.1763 347.877 82.3367 346.653C81.5755 346.728 80.886 347.019 80.1712 347.28C74.8226 349.112 68.5288 348.772 63.4225 346.339C62.1549 345.659 62.1549 345.659 61.8457 345.351C61.5493 345.333 61.2521 345.329 60.9552 345.329C60.7613 345.329 60.5674 345.329 60.3676 345.329C60.152 345.33 59.9364 345.331 59.7142 345.332C59.3736 345.332 59.3737 345.332 59.0262 345.333C58.393 345.334 57.7599 345.335 57.1267 345.337C56.4449 345.339 55.7631 345.34 55.0813 345.341C53.8987 345.343 52.716 345.345 51.5333 345.348C49.6634 345.352 47.7935 345.355 45.9236 345.357C45.2841 345.358 44.6446 345.358 44.0051 345.359C43.8453 345.359 43.6854 345.36 43.5207 345.36C41.6997 345.362 39.8786 345.365 38.0575 345.367C37.8909 345.368 37.7244 345.368 37.5528 345.368C34.857 345.372 32.1612 345.378 29.4653 345.384C26.6981 345.39 23.9308 345.394 21.1635 345.396C19.4566 345.397 17.7497 345.4 16.0428 345.405C14.872 345.409 13.7011 345.411 12.5302 345.41C11.855 345.41 11.1799 345.411 10.5047 345.415C9.77157 345.418 9.03849 345.418 8.30538 345.417C8.09349 345.418 7.88159 345.42 7.66328 345.422C5.9154 345.413 4.3617 345.204 3.05546 343.965C2.11151 342.925 1.96834 341.865 1.98652 340.506C2.11152 339.41 2.55673 338.51 3.34798 337.74C4.41651 336.903 5.17805 336.773 6.53604 336.774C6.66903 336.773 6.80202 336.773 6.93905 336.773C7.38467 336.773 7.83028 336.774 8.27591 336.775C8.59535 336.775 8.91479 336.775 9.23424 336.775C10.1017 336.775 10.9691 336.776 11.8366 336.777C12.7431 336.778 13.6495 336.778 14.556 336.779C16.2726 336.779 17.9892 336.781 19.7058 336.783C21.66 336.785 23.6143 336.786 25.5685 336.787C29.5887 336.789 33.6089 336.792 37.629 336.796C37.6366 336.579 37.6366 336.579 37.6444 336.358C37.6678 335.697 37.6916 335.036 37.7154 334.375C37.7234 334.147 37.7314 333.92 37.7396 333.686C37.7941 332.185 37.874 330.698 38.0481 329.206C38.0721 328.994 38.096 328.783 38.1207 328.565C39.2432 319.079 41.4221 308.058 47.1265 300.113C47.215 299.989 47.3034 299.864 47.3946 299.736C47.5606 299.508 47.7314 299.283 47.908 299.063C48.356 298.456 48.4368 298.148 48.3613 297.394C48.2684 297.074 48.1668 296.756 48.0608 296.44C47.9884 296.216 47.916 295.991 47.8415 295.76C47.6209 295.085 47.3926 294.412 47.1626 293.74C42.8987 281.248 40.2668 268.302 39.1193 255.154C39.0992 254.926 39.0992 254.926 39.0788 254.693C38.5338 248.408 38.4197 242.118 38.3741 235.813C38.3729 235.645 38.3717 235.477 38.3704 235.304C38.3594 233.546 38.3844 231.793 38.4673 230.036C38.4948 229.45 38.52 228.864 38.5344 228.277C38.5604 227.63 38.5604 227.63 38.6436 226.897C38.8713 224.418 37.7952 222.963 36.36 221.028C36.1522 220.738 35.9452 220.448 35.7389 220.157C35.4312 219.724 35.1229 219.291 34.8117 218.861C33.8513 217.531 32.9587 216.162 32.0786 214.779C31.7506 214.263 31.4187 213.751 31.0873 213.238C29.5177 210.797 27.9697 208.345 26.4521 205.871C26.3318 205.676 26.2116 205.481 26.0877 205.28C24.1606 202.148 22.2912 198.988 20.4885 195.784C20.3056 195.459 20.1223 195.134 19.939 194.809C12.6078 181.8 6.02838 168.126 0.558838 127.763C0.596253 127.513 0.596253 127.513 0.634424 127.258C1.1743 123.829 2.04802 120.079 4.28448 117.349C4.42112 117.172 4.55775 116.996 4.69852 116.815C6.26696 114.835 8.03689 113.265 10.0592 111.769C10.1636 111.692 10.2679 111.615 10.3754 111.536C15.2454 107.993 21.0754 105.801 26.8246 104.145C27.0235 104.087 27.2223 104.029 27.4272 103.97C43.8153 99.2773 61.2162 98.1737 78.1709 97.605C78.2981 97.6007 78.4253 97.5964 78.5564 97.592C82.5839 97.4576 86.5976 97.4487 90.6261 97.5388C91.4715 97.5575 92.317 97.5728 93.1625 97.5872C93.4452 97.5921 93.7278 97.5971 94.0105 97.602C94.4347 97.6093 94.8588 97.6167 95.283 97.6238C96.857 97.6507 98.4302 97.6852 100.004 97.7378C109.01 98.1562 109.01 98.1562 116.635 93.8397C117.358 93.1911 118.131 92.7136 118.978 92.2445C119.217 92.1047 119.456 91.9647 119.694 91.8243C119.917 91.6962 120.139 91.5682 120.362 91.4403C120.597 91.3031 120.833 91.1657 121.068 91.0281C121.416 90.8247 121.765 90.6214 122.113 90.4192C122.81 90.0153 123.501 89.6037 124.19 89.1868C125.6 88.3339 127.031 87.5378 128.488 86.7678C128.718 86.6458 128.948 86.5237 129.178 86.4016C129.63 86.1617 130.082 85.9222 130.534 85.6832C131.042 85.4144 131.55 85.1443 132.057 84.8732C132.928 84.4087 133.804 83.9531 134.682 83.5016C134.893 83.3931 135.104 83.2846 135.322 83.1727C138.705 81.4385 142.123 79.8373 145.627 78.364C146.148 78.144 146.665 77.9197 147.182 77.6915C164.682 69.9823 183.398 65.0625 213.479 60.2551C213.741 60.2219 213.741 60.2219 214.008 60.188C221.554 59.2361 229.123 58.6506 236.718 58.2675C237.077 58.249 237.077 58.249 237.443 58.23C239.93 58.1031 242.41 58.0076 244.901 58.0263C245.296 58.027 245.692 58.0277 246.087 58.0283C246.812 58.0299 247.533 58.046 248.257 58.0712C249.685 58.0947 250.812 58.1033 251.906 57.1007C252.359 56.6255 252.757 56.1262 253.158 55.6058C253.392 55.3396 253.628 55.0747 253.866 54.8118C253.966 54.6954 254.065 54.5789 254.168 54.459C254.69 53.8522 255.24 53.271 255.789 52.6883C255.976 52.4892 255.976 52.4892 256.167 52.2859C257.418 50.9668 258.704 49.6851 260 48.4101C260.819 47.6001 261.607 46.7797 262.358 45.9059C262.834 45.3617 263.343 44.8517 263.857 44.3428C263.963 44.2375 264.069 44.1321 264.178 44.0235C264.816 43.3931 265.471 42.7958 266.156 42.2165C266.872 41.5718 267.541 40.8783 268.219 40.1941C268.905 39.5047 269.604 38.8465 270.347 38.2181C270.688 37.9215 271.003 37.6092 271.32 37.2875C271.876 36.7235 272.458 36.2017 273.058 35.685C273.509 35.2947 273.951 34.8969 274.394 34.4979C275.194 33.7773 276 33.0639 276.815 32.3592C276.952 32.2403 276.952 32.2403 277.092 32.1189C278.386 30.9939 279.697 29.9011 281.054 28.8524C281.828 28.2507 282.573 27.6218 283.312 26.9777C284.437 26.002 285.607 25.1054 286.805 24.223C287.384 23.7967 287.954 23.3619 288.521 22.9211C290.777 21.172 293.1 19.5629 295.491 18.0033C295.946 17.7046 296.397 17.4019 296.847 17.0957C309.172 8.71737 323.077 2.42741 337.916 0.371992C338.087 0.347569 338.258 0.323147 338.434 0.297984C343.33 -0.370621 348.674 -0.307903 353.564 0.371992Z" fill="#FEBE1C"/>
<path d="M353.564 0.371992C353.753 0.388054 353.943 0.404115 354.138 0.420664C359.494 1.02431 365.116 6.92845 368.373 10.8213C368.655 11.1795 368.934 11.5401 369.211 11.9023C369.303 12.0202 369.395 12.1381 369.49 12.2596C379.891 25.6284 384.562 43.1381 395.639 124.183C395.658 124.549 395.658 124.549 395.677 124.923C395.734 126.064 395.788 127.205 395.836 128.346C395.854 128.747 395.873 129.147 395.892 129.548C395.898 129.727 395.905 129.905 395.911 130.089C395.985 131.579 396.417 132.567 397.236 133.824C397.359 134.014 397.482 134.204 397.609 134.4C397.739 134.6 397.869 134.799 398.004 135.004C398.14 135.215 398.276 135.425 398.412 135.635C398.679 136.05 398.948 136.464 399.216 136.878C402.814 142.441 406.179 148.176 409.203 154.07C409.426 154.5 409.652 154.926 409.882 155.352C416.927 168.418 422.315 182.519 425.958 196.898C426.01 197.103 426.01 197.103 426.063 197.312C426.477 198.939 426.831 200.565 427.117 202.22C427.175 202.542 427.233 202.864 427.292 203.186C427.403 203.797 427.5 204.409 427.589 205.024C427.818 206.392 428.057 207.338 429.201 208.201C429.538 208.427 429.879 208.638 430.23 208.842C432.404 210.121 433.941 212.223 435.448 214.194C435.523 214.292 435.598 214.39 435.676 214.491C435.9 214.798 435.9 214.798 436.111 215.137C436.707 216.071 437.319 216.423 438.334 216.832C444.357 219.475 448.433 224.807 450.794 230.814C451.066 231.544 451.312 232.281 451.548 233.023C451.597 233.175 451.645 233.326 451.695 233.482C452.358 235.591 452.81 237.726 453.178 239.904C453.215 240.117 453.252 240.329 453.29 240.548C454.004 245.058 454.018 249.649 454.045 254.204C454.115 265.224 455.11 276.005 457.044 286.855C459.125 298.54 460.793 310.289 461.922 322.104C461.94 322.289 461.958 322.475 461.976 322.665C462.419 327.241 462.648 331.835 462.911 336.424C463.101 336.423 463.101 336.423 463.294 336.422C466.371 336.406 469.448 336.393 472.525 336.386C474.013 336.382 475.501 336.376 476.989 336.368C478.286 336.361 479.584 336.356 480.881 336.354C481.568 336.353 482.254 336.351 482.941 336.345C483.708 336.339 484.476 336.339 485.243 336.34C485.47 336.337 485.696 336.334 485.929 336.332C487.494 336.339 488.457 336.58 489.689 337.586C490.657 338.768 490.985 339.736 490.924 341.278C490.757 342.552 490.166 343.35 489.209 344.175C487.778 345.046 486.462 345.058 484.825 345.049C484.571 345.05 484.317 345.05 484.063 345.051C483.363 345.054 482.664 345.052 481.964 345.05C481.201 345.049 480.437 345.051 479.674 345.052C478.331 345.054 476.987 345.054 475.644 345.053C473.632 345.051 471.621 345.052 469.61 345.054C466.182 345.057 462.755 345.058 459.327 345.057C455.852 345.056 452.378 345.056 448.903 345.058C448.574 345.058 448.574 345.058 448.239 345.058C447.121 345.059 446.003 345.059 444.885 345.06C442.592 345.061 440.299 345.062 438.007 345.063C437.776 345.063 437.545 345.063 437.307 345.063C432.232 345.066 427.157 345.066 422.082 345.067C413.562 345.068 405.042 345.07 396.522 345.075C396.335 345.075 396.335 345.075 396.145 345.075C393.109 345.077 390.072 345.079 387.036 345.081C382.276 345.083 377.515 345.086 372.754 345.089C372.234 345.089 371.714 345.09 371.194 345.09C358.931 345.097 346.667 345.103 334.404 345.108C333.726 345.108 333.048 345.109 332.37 345.109C319.835 345.114 307.3 345.119 294.765 345.121C294.357 345.121 293.948 345.122 293.54 345.122C290.684 345.122 287.829 345.123 284.973 345.123C284.566 345.124 284.159 345.124 283.752 345.124C283.481 345.124 283.209 345.124 282.938 345.124C282.804 345.124 282.669 345.124 282.531 345.124C281.853 345.124 281.175 345.124 280.497 345.124C267.977 345.127 255.456 345.131 242.935 345.138C242.675 345.139 242.415 345.139 242.155 345.139C236.886 345.142 231.616 345.146 226.346 345.15C223.818 345.151 221.289 345.153 218.761 345.155C218.51 345.155 218.258 345.155 218.007 345.155C209.862 345.161 201.717 345.162 193.572 345.161C185.497 345.16 177.421 345.163 169.346 345.171C168.23 345.172 167.115 345.173 165.999 345.174C165.781 345.174 165.562 345.175 165.337 345.175C161.872 345.178 158.407 345.177 154.942 345.174C151.536 345.171 148.131 345.173 144.725 345.179C142.728 345.183 140.73 345.183 138.732 345.178C137.406 345.175 136.08 345.177 134.754 345.182C134.001 345.185 133.249 345.186 132.497 345.182C128.38 345.138 128.38 345.138 124.623 346.653C119.447 348.777 113.842 348.389 108.543 347.047C106.952 346.608 106.952 346.608 105.429 347.109C105.265 347.211 105.265 347.211 105.098 347.315C100.239 350.111 93.8997 350.775 88.484 349.442C86.3579 348.833 84.1762 347.877 82.3366 346.653C81.5754 346.728 80.8859 347.019 80.1711 347.28C74.8225 349.112 68.5288 348.772 63.4225 346.339C62.1548 345.659 62.1548 345.659 61.8456 345.351C61.5492 345.333 61.252 345.329 60.9551 345.329C60.7612 345.329 60.5673 345.329 60.3676 345.329C60.1519 345.33 59.9363 345.331 59.7141 345.332C59.3736 345.332 59.3736 345.332 59.0261 345.333C58.3929 345.334 57.7598 345.335 57.1266 345.337C56.4448 345.339 55.763 345.34 55.0812 345.341C53.8986 345.343 52.7159 345.345 51.5332 345.348C49.6633 345.352 47.7934 345.355 45.9235 345.357C45.284 345.358 44.6445 345.359 44.005 345.359C43.8452 345.359 43.6853 345.36 43.5207 345.36C41.6996 345.362 39.8785 345.365 38.0574 345.367C37.8908 345.368 37.7243 345.368 37.5527 345.368C34.8569 345.372 32.1611 345.378 29.4652 345.384C26.698 345.39 23.9307 345.394 21.1634 345.396C19.4565 345.397 17.7497 345.4 16.0428 345.405C14.8719 345.409 13.701 345.411 12.5301 345.41C11.8549 345.41 11.1798 345.411 10.5046 345.415C9.77148 345.418 9.0384 345.418 8.30529 345.417C8.09339 345.418 7.8815 345.42 7.66319 345.422C5.91531 345.413 4.36161 345.204 3.05536 343.965C2.11142 342.925 1.96824 341.865 1.98642 340.506C2.11143 339.41 2.55664 338.51 3.34789 337.74C4.41642 336.903 5.17796 336.773 6.53595 336.774C6.66894 336.774 6.80193 336.773 6.93896 336.773C7.38458 336.773 7.83019 336.774 8.27582 336.775C8.59526 336.775 8.9147 336.775 9.23415 336.775C10.1016 336.775 10.9691 336.776 11.8365 336.777C12.743 336.778 13.6494 336.778 14.5559 336.779C16.2725 336.779 17.9891 336.781 19.7057 336.783C21.66 336.785 23.6142 336.786 25.5685 336.787C29.5886 336.789 33.6088 336.792 37.6289 336.796C37.6365 336.579 37.6365 336.579 37.6443 336.358C37.6677 335.697 37.6915 335.036 37.7153 334.375C37.7233 334.147 37.7313 333.92 37.7395 333.686C37.794 332.185 37.8739 330.698 38.048 329.206C38.072 328.994 38.096 328.783 38.1206 328.565C39.2431 319.079 41.422 308.058 47.1264 300.113C47.2149 299.989 47.3033 299.864 47.3945 299.736C47.5605 299.508 47.7313 299.283 47.908 299.063C48.3559 298.456 48.4367 298.148 48.3612 297.394C48.2683 297.074 48.1667 296.756 48.0607 296.44C47.9883 296.216 47.9159 295.991 47.8414 295.76C47.6209 295.085 47.3925 294.412 47.1625 293.74C42.8986 281.248 40.2668 268.302 39.1192 255.154C39.0991 254.926 39.0991 254.926 39.0787 254.693C38.5337 248.408 38.4196 242.118 38.374 235.813C38.3728 235.645 38.3716 235.477 38.3703 235.304C38.3594 233.546 38.3843 231.793 38.4672 230.036C38.4947 229.45 38.5199 228.864 38.5343 228.277C38.5603 227.63 38.5603 227.63 38.6435 226.897C38.8712 224.418 37.7951 222.963 36.3599 221.028C36.1521 220.738 35.9451 220.448 35.7388 220.157C35.4311 219.724 35.1228 219.292 34.8116 218.861C33.8512 217.531 32.9586 216.162 32.0785 214.779C31.7505 214.263 31.4186 213.751 31.0872 213.238C29.5176 210.797 27.9696 208.345 26.452 205.871C26.3317 205.676 26.2115 205.481 26.0876 205.28C24.1605 202.148 22.2911 198.988 20.4884 195.784C20.3055 195.459 20.1222 195.134 19.9389 194.809C12.6077 181.8 -0.902476 156.508 0.558746 127.763C0.596161 127.513 0.596161 127.513 0.634332 127.258C1.17421 123.829 2.04793 120.079 4.28439 117.349C4.42102 117.172 4.55766 116.996 4.69843 116.815C6.26687 114.835 8.0368 113.265 10.0591 111.769C10.1635 111.692 10.2678 111.615 10.3753 111.536C15.2453 107.993 21.0753 105.801 26.8245 104.145C27.0234 104.087 27.2223 104.029 27.4271 103.97C43.8152 99.2774 61.2161 98.1737 78.1708 97.605C78.298 97.6007 78.4252 97.5964 78.5563 97.592C82.5838 97.4576 86.5975 97.4487 90.626 97.5388C91.4714 97.5575 92.3169 97.5728 93.1624 97.5872C93.4451 97.5922 93.7278 97.5971 94.0104 97.602C94.4346 97.6093 94.8587 97.6167 95.2829 97.6238C96.8569 97.6507 98.4301 97.6852 100.004 97.7378C109.01 98.1562 109.01 98.1562 116.635 93.8397C117.358 93.1911 118.131 92.7137 118.977 92.2445C119.217 92.1047 119.456 91.9647 119.694 91.8243C119.917 91.6962 120.139 91.5683 120.362 91.4403C120.597 91.3031 120.833 91.1657 121.068 91.0281C121.416 90.8247 121.765 90.6215 122.113 90.4192C122.81 90.0153 123.501 89.6037 124.19 89.1869C125.6 88.3339 127.031 87.5378 128.488 86.7678C128.718 86.6458 128.948 86.5237 129.178 86.4016C129.63 86.1617 130.082 85.9222 130.534 85.6832C131.042 85.4144 131.55 85.1443 132.057 84.8732C132.928 84.4087 133.804 83.9531 134.682 83.5016C134.893 83.3931 135.104 83.2846 135.322 83.1727C138.705 81.4385 142.123 79.8373 145.627 78.364C146.147 78.144 146.665 77.9197 147.182 77.6915C164.682 69.9823 183.398 65.0625 213.479 60.2551C213.741 60.2219 213.741 60.2219 214.008 60.188C221.554 59.2361 229.123 58.6506 236.718 58.2675C237.077 58.249 237.077 58.249 237.443 58.23C239.93 58.1032 242.41 58.0076 244.901 58.0263C245.296 58.027 245.692 58.0277 246.087 58.0283C246.811 58.0299 247.533 58.046 248.257 58.0712C249.685 58.0947 250.812 58.1033 251.906 57.1007C252.359 56.6255 252.757 56.1262 253.157 55.6058C253.392 55.3396 253.628 55.0747 253.866 54.8118C253.966 54.6954 254.065 54.5789 254.168 54.459C254.69 53.8522 255.24 53.271 255.789 52.6883C255.976 52.4892 255.976 52.4892 256.167 52.2859C257.417 50.9668 258.704 49.6851 259.999 48.4101C260.819 47.6001 261.607 46.7797 262.358 45.9059C262.834 45.3617 263.343 44.8517 263.857 44.3428C263.963 44.2375 264.069 44.1321 264.178 44.0235C264.816 43.3931 265.471 42.7958 266.156 42.2165C266.872 41.5718 267.54 40.8783 268.219 40.1941C268.905 39.5047 269.604 38.8465 270.347 38.2181C270.687 37.9215 271.003 37.6092 271.32 37.2875C271.876 36.7235 272.458 36.2017 273.058 35.685C273.509 35.2947 273.951 34.8969 274.394 34.4979C275.194 33.7773 276 33.0639 276.815 32.3592C276.952 32.2403 276.952 32.2403 277.092 32.1189C278.386 30.9939 279.697 29.9011 281.054 28.8524C281.828 28.2507 282.573 27.6218 283.312 26.9777C284.437 26.002 285.607 25.1054 286.805 24.223C287.384 23.7967 287.954 23.3619 288.521 22.9211C290.777 21.172 293.1 19.5629 295.491 18.0033C295.946 17.7046 296.397 17.4019 296.847 17.0957C309.172 8.71737 323.077 2.42741 337.916 0.371992C338.087 0.347569 338.258 0.323147 338.434 0.297984C343.33 -0.370621 348.674 -0.307903 353.564 0.371992ZM337.461 8.09938C336.976 8.18433 336.49 8.25926 336.004 8.33321C329.361 9.38968 322.941 11.6707 316.866 14.5059C316.649 14.6064 316.433 14.7068 316.21 14.8104C313.121 16.2472 310.109 17.7858 307.179 19.5271C306.988 19.6407 306.797 19.7543 306.6 19.8713C303.549 21.6939 300.596 23.6369 297.679 25.6642C297.48 25.8015 297.48 25.8015 297.278 25.9415C295.809 26.9582 294.395 28.0375 292.989 29.1385C292.059 29.8661 291.119 30.5766 290.169 31.2783C289.15 32.0338 288.169 32.82 287.208 33.6478C286.494 34.2617 285.759 34.8421 285.012 35.4162C283.893 36.2798 282.855 37.2104 281.825 38.1774C281.281 38.6872 280.725 39.1792 280.16 39.6666C279.724 40.0467 279.294 40.4336 278.864 40.821C278.321 41.3104 277.776 41.796 277.223 42.2739C275.531 43.7487 273.905 45.2832 272.335 46.8862C271.941 47.2806 271.531 47.6465 271.107 48.0087C270.266 48.7406 269.476 49.5165 268.688 50.3049C268.54 50.4522 268.392 50.5996 268.24 50.7514C267.93 51.0611 267.62 51.371 267.31 51.6812C266.839 52.1523 266.367 52.6225 265.895 53.0926C265.592 53.3954 265.289 53.6982 264.986 54.0011C264.846 54.1398 264.707 54.2786 264.563 54.4215C263.803 55.184 263.074 55.9627 262.372 56.7797C261.902 57.3199 261.385 57.8102 260.871 58.3082C260.382 58.8086 259.927 59.331 259.468 59.8586C258.778 60.6407 258.054 61.3914 257.336 62.1475C256.81 62.7039 256.293 63.2594 255.809 63.8532C255.217 64.555 254.587 64.9867 253.716 65.2764C253.383 65.3013 253.049 65.3163 252.715 65.3257C252.404 65.3351 252.404 65.3351 252.087 65.3446C251.861 65.3506 251.634 65.3566 251.401 65.3628C251.037 65.3735 250.674 65.3841 250.311 65.3949C249.922 65.4062 249.533 65.4171 249.144 65.4279C248.331 65.4507 247.518 65.4751 246.705 65.4998C246.569 65.504 246.433 65.5081 246.292 65.5124C246.016 65.5208 245.74 65.5292 245.464 65.5376C244.77 65.5587 244.076 65.5796 243.382 65.6004C243.111 65.6086 242.841 65.6168 242.57 65.6249C242.075 65.6399 241.58 65.6547 241.084 65.6695C232.951 65.9133 224.862 66.427 216.784 67.423C216.111 67.5051 215.438 67.5829 214.765 67.6591C213.028 67.8571 211.301 68.0651 209.583 68.3889C208.272 68.6327 206.953 68.8223 205.634 69.0168C203.624 69.3135 201.619 69.615 199.632 70.0477C198.822 70.2222 198.015 70.3513 197.193 70.4603C195.586 70.6833 194.012 71.0288 192.429 71.3786C192.123 71.4456 191.816 71.5127 191.51 71.5796C190.768 71.742 190.026 71.9057 189.285 72.0699C188.929 72.1487 188.574 72.2271 188.218 72.3054C186.364 72.7146 184.52 73.1418 182.688 73.6429C182.207 73.774 181.726 73.9017 181.243 74.025C179.331 74.5148 177.432 75.0488 175.536 75.5978C175.417 75.6323 175.297 75.6668 175.174 75.7023C169.353 77.3862 163.62 79.3244 157.965 81.5C157.598 81.6405 157.232 81.7799 156.865 81.919C150.681 84.2665 144.652 86.945 138.734 89.8945C138.552 89.9848 138.37 90.0752 138.182 90.1684C135.642 91.434 133.159 92.7848 130.697 94.1961C130.042 94.5707 129.384 94.9406 128.726 95.3107C124.577 97.6485 120.569 100.169 116.628 102.839C116.489 102.932 116.351 103.025 116.208 103.122C115.95 103.296 115.692 103.471 115.435 103.647C115.087 103.882 114.733 104.106 114.377 104.331C114.174 104.461 113.971 104.591 113.761 104.725C112.612 105.286 111.364 105.171 110.114 105.156C109.834 105.155 109.554 105.155 109.273 105.155C108.514 105.155 107.754 105.15 106.994 105.144C106.191 105.138 105.387 105.137 104.584 105.136C103.056 105.133 101.527 105.126 99.9986 105.117C97.2856 105.103 94.5725 105.095 91.8595 105.087C90.9131 105.084 89.9667 105.08 89.0204 105.075C82.9223 105.041 76.8309 105.178 70.7406 105.493C70.5134 105.505 70.2863 105.516 70.0523 105.528C41.0129 106.8 20.4884 110.126 11.238 120.756C8.92145 123.418 8.23886 126.941 7.82375 130.367C7.79701 130.583 7.79701 130.583 7.76972 130.803C7.60932 132.292 7.60915 133.778 7.61319 135.274C7.61418 135.71 7.61319 136.146 7.612 136.582C7.61032 139.278 7.77454 141.91 8.23125 144.57C8.27208 144.811 8.31292 145.051 8.35499 145.299C8.72249 147.42 9.194 149.511 9.73506 151.595C9.86412 152.092 9.98912 152.59 10.1137 153.088C13.6746 166.993 20.2521 180.389 27.4689 192.732C27.7914 193.286 28.11 193.843 28.4283 194.399C29.8052 196.804 31.2225 199.176 32.6953 201.523C33.0403 202.076 33.3788 202.633 33.7168 203.19C36.3273 207.491 39.1269 211.668 41.9265 215.847C42.0312 216.004 42.1359 216.16 42.2438 216.321C42.8092 217.166 43.3766 218.01 43.9463 218.851C44.1841 219.204 44.4218 219.557 44.6596 219.909C44.7709 220.073 44.8821 220.237 44.9968 220.405C45.1515 220.635 45.1515 220.635 45.3093 220.87C45.4002 221.004 45.491 221.138 45.5847 221.276C46.1342 222.196 46.2525 222.97 46.2328 224.027C46.2311 224.164 46.2294 224.302 46.2277 224.443C46.2112 225.512 46.1752 226.579 46.1303 227.648C46.0125 230.486 45.9745 233.321 45.9767 236.162C45.9767 236.393 45.9766 236.624 45.9766 236.862C45.9796 241.151 46.109 245.425 46.3594 249.706C46.3826 250.106 46.4047 250.506 46.4264 250.906C46.9258 259.958 48.0899 269.298 50.4745 278.056C50.6677 278.769 50.8529 279.484 51.0361 280.199C52.0271 284.044 53.1676 287.828 54.3943 291.605C55.0251 291.465 55.364 291.278 55.8613 290.861C59.4561 288.007 63.6949 286.076 67.9929 284.538C68.2187 284.457 68.2187 284.457 68.4491 284.374C75.0168 282.039 81.8946 280.958 88.8565 280.969C89.0109 280.97 89.1653 280.97 89.3243 280.97C96.5835 280.991 104.137 281.663 111.036 284.073C111.265 284.152 111.493 284.232 111.729 284.314C119.377 287.026 126.366 291.88 131.143 298.486C131.227 298.602 131.311 298.718 131.398 298.837C133.389 301.603 135.085 304.521 136.545 307.598C136.629 307.772 136.629 307.772 136.714 307.949C139.905 314.59 141.297 323.15 138.821 330.257C138.709 330.548 138.709 330.548 138.594 330.845C138.526 331.025 138.526 331.025 138.457 331.209C137.807 332.927 137.046 334.523 136.098 336.097C135.782 336.601 135.782 336.601 135.613 337.168C148.232 337.17 160.85 337.165 173.469 337.153C175.825 337.151 178.181 337.148 180.538 337.146C184.881 337.142 189.224 337.138 193.567 337.134C197.851 337.129 202.134 337.125 206.418 337.121C206.552 337.121 206.687 337.121 206.825 337.121C208.054 337.119 209.282 337.118 210.51 337.117C213.56 337.114 216.61 337.111 219.66 337.108C219.799 337.108 219.938 337.108 220.08 337.108C226.78 337.102 233.479 337.095 240.178 337.089C242.494 337.086 244.811 337.084 247.127 337.082C247.343 337.082 247.343 337.082 247.563 337.081C254.28 337.075 260.997 337.068 267.715 337.062C268.152 337.061 268.59 337.061 269.028 337.061C271.929 337.058 274.83 337.055 277.731 337.052C283.5 337.047 289.269 337.041 295.038 337.036C295.312 337.035 295.587 337.035 295.862 337.035C311.616 337.02 327.371 337.004 350.397 336.982C350.517 336.474 350.637 335.966 350.758 335.458C350.791 335.315 350.825 335.172 350.86 335.025C351.085 334.075 351.295 333.126 351.467 332.166C351.493 332.027 351.518 331.888 351.544 331.745C351.625 331.298 351.704 330.851 351.782 330.403C351.81 330.245 351.838 330.086 351.866 329.923C354.238 316.225 354.639 301.958 353.594 288.099C353.563 287.685 353.533 287.271 353.503 286.856C353.042 280.473 352.253 274.132 351.328 267.8C351.281 267.474 351.281 267.474 351.232 267.142C350.949 265.216 350.645 263.294 350.301 261.378C349.744 258.256 349.225 255.168 349.093 251.993C349.085 251.811 349.076 251.63 349.068 251.444C348.83 245.349 350.1 239.448 354.219 234.804C354.681 234.325 354.681 234.325 355.108 234.066C355.491 233.769 355.491 233.769 355.514 233.159C355.518 232.904 355.52 232.65 355.52 232.396C355.613 229.371 356.266 226.495 357.476 223.725C357.56 223.531 357.644 223.337 357.73 223.137C360.442 217.332 365.87 213.464 371.754 211.274C372.204 211.11 372.656 210.949 373.108 210.79C373.24 210.743 373.373 210.696 373.509 210.648C373.81 210.542 374.11 210.436 374.41 210.33C374.898 210.103 375.139 209.767 375.464 209.349C375.87 208.868 376.343 208.479 376.823 208.073C377.082 207.851 377.336 207.623 377.585 207.39C382.881 202.445 389.394 200.436 396.521 200.604C398.033 200.656 399.42 200.822 400.879 201.222C401.085 201.272 401.291 201.321 401.504 201.373C403.826 201.972 406.168 202.861 408.272 204.012C409.353 204.576 410.29 204.446 411.468 204.288C412.713 204.149 413.961 204.171 415.211 204.174C415.455 204.174 415.698 204.173 415.949 204.172C417.271 204.174 418.568 204.214 419.88 204.384C418.721 198.944 417.305 193.58 415.559 188.297C415.386 187.76 415.222 187.22 415.059 186.68C414.65 185.351 414.199 184.039 413.733 182.73C413.689 182.606 413.645 182.482 413.599 182.355C412.171 178.356 410.565 174.44 408.843 170.56C408.782 170.422 408.721 170.284 408.658 170.142C407.9 168.435 407.101 166.755 406.257 165.09C405.766 164.12 405.303 163.138 404.838 162.156C403.143 158.615 401.299 155.166 399.342 151.762C398.997 151.161 398.652 150.559 398.308 149.956C397.101 147.852 395.879 145.763 394.572 143.719C394.36 143.385 394.151 143.05 393.943 142.714C393.213 141.533 392.469 140.363 391.701 139.205C391.631 139.099 391.561 138.993 391.488 138.883C391.136 138.351 390.782 137.819 390.427 137.289C390.051 136.723 389.686 136.152 389.33 135.574C389.204 135.371 389.204 135.371 389.076 135.165C388.428 133.945 388.451 132.616 388.412 131.266C388.388 130.444 388.35 129.622 388.315 128.8C388.308 128.619 388.301 128.437 388.293 128.25C388.187 125.738 388.024 123.229 387.863 120.719C387.851 120.53 387.851 120.53 387.838 120.337C386.727 103.024 375.562 34.4979 365.486 19.7131C365.413 19.6069 365.341 19.5007 365.266 19.3912C364.133 17.7374 362.9 16.1948 361.574 14.6919C361.489 14.5945 361.404 14.4971 361.317 14.3967C360.143 13.0516 358.906 11.8635 357.476 10.7864C357.372 10.7082 357.268 10.63 357.162 10.5494C356.411 9.98687 355.648 9.44764 354.868 8.92672C354.639 8.77281 354.639 8.77281 354.406 8.6158C353.484 8.07749 352.57 7.9021 351.519 7.79127C351.373 7.77567 351.227 7.76007 351.077 7.744C349.262 7.56621 347.446 7.55982 345.623 7.5668C345.443 7.56708 345.264 7.56735 345.078 7.56764C342.508 7.57475 339.998 7.65474 337.461 8.09938Z" fill="#222221"/>
<path d="M407.03 211.584C407.693 211.869 408.181 211.891 408.901 211.881C409.024 211.879 409.147 211.878 409.274 211.876C410.032 211.858 410.753 211.774 411.498 211.637C416.043 210.851 420.821 211.544 424.724 214.054C427.486 216.022 429.419 218.53 431.101 221.436C431.814 222.365 432.803 222.738 433.875 223.132C438.309 224.846 441.423 228.199 443.347 232.5C445.935 238.642 446.434 245.24 446.436 251.82C446.437 253.323 446.453 254.827 446.468 256.331C446.47 256.48 446.471 256.63 446.473 256.784C446.517 261.023 446.761 265.247 447.077 269.474C447.095 269.71 447.095 269.71 447.112 269.95C447.364 273.398 447.732 276.816 448.286 280.23C448.38 280.813 448.472 281.396 448.562 281.979C448.869 283.952 449.203 285.92 449.557 287.885C450.623 293.803 451.603 299.724 452.421 305.682C452.476 306.083 452.532 306.483 452.588 306.884C453.071 310.327 453.469 313.777 453.829 317.235C453.921 318.113 454.016 318.991 454.114 319.868C454.518 323.476 454.82 327.082 455.041 330.705C455.053 330.902 455.065 331.099 455.078 331.302C455.112 331.867 455.145 332.433 455.178 332.998C455.188 333.164 455.197 333.329 455.208 333.5C455.254 334.341 455.278 335.177 455.276 336.019C455.276 336.2 455.276 336.381 455.275 336.568C455.275 336.705 455.274 336.841 455.274 336.982C443.745 336.988 432.217 336.974 420.689 336.946C418.509 336.941 416.329 336.935 414.149 336.93C410.266 336.921 406.382 336.912 402.499 336.902C398.742 336.893 394.984 336.884 391.226 336.875C390.992 336.875 390.758 336.874 390.517 336.874C389.341 336.871 388.166 336.868 386.99 336.865C377.338 336.842 367.686 336.819 358.035 336.796C358.062 336.533 358.09 336.27 358.118 336.007C358.134 335.861 358.149 335.714 358.166 335.563C358.252 334.876 358.401 334.206 358.547 333.53C359.635 328.273 360.28 322.933 360.722 317.587C360.746 317.3 360.77 317.014 360.794 316.728C361.205 311.868 361.233 306.986 361.226 302.112C361.225 301.421 361.225 300.73 361.226 300.039C361.232 295.303 361.057 290.598 360.701 285.874C360.685 285.666 360.67 285.458 360.654 285.243C360.241 279.797 359.593 274.379 358.862 268.968C358.84 268.808 358.819 268.648 358.797 268.484C358.655 267.448 358.49 266.418 358.316 265.387C358.06 263.875 357.82 262.361 357.576 260.847C357.509 260.431 357.442 260.016 357.375 259.601C356.285 252.881 356.285 252.881 356.3 250.447C356.301 250.267 356.301 250.087 356.302 249.902C356.34 247.45 356.619 244.939 357.662 242.694C357.74 242.523 357.818 242.352 357.899 242.175C358.661 240.65 359.701 239.429 361.155 238.521C361.992 237.948 362.355 237.119 362.692 236.185C362.811 235.419 362.821 234.669 362.82 233.895C362.828 233.482 362.837 233.07 362.847 232.657C362.854 232.365 362.854 232.365 362.86 232.067C362.992 228.092 364.762 224.665 367.593 221.925C370.325 219.57 373.576 218.219 376.998 217.193C378.453 216.742 379.302 216.185 380.284 215.007C383.46 211.321 388.083 208.243 393.024 207.754C398.077 207.464 402.696 209.121 407.03 211.584Z" fill="#FEBE1C"/>
<path d="M218.579 204.523C218.728 204.523 218.876 204.523 219.03 204.523C223.834 204.529 228.521 205.067 233.225 206.057C233.373 206.087 233.521 206.117 233.673 206.148C241.674 207.776 249.792 211.309 256.138 216.472C256.293 216.589 256.449 216.707 256.609 216.828C261.974 220.97 266.392 226.773 268.06 233.395C268.111 233.562 268.162 233.729 268.215 233.9C269.016 236.518 269.057 239.279 269.05 241.994C269.05 242.495 269.054 242.996 269.059 243.497C269.07 246.416 268.689 249.172 267.839 251.969C267.783 252.157 267.726 252.344 267.669 252.538C265.853 258.448 262.833 263.745 258.612 268.271C258.259 268.652 257.925 269.04 257.593 269.439C255.641 271.665 253.31 273.506 250.922 275.239C250.813 275.318 250.704 275.398 250.592 275.479C244.712 279.725 238.088 282.47 231.176 284.538C231.008 284.588 230.841 284.639 230.668 284.691C228.485 285.333 226.246 285.692 224.004 286.06C223.862 286.084 223.719 286.108 223.571 286.132C219.817 286.747 216.145 287.017 212.338 287.004C211.662 287.002 210.985 287.004 210.309 287.006C208.04 287.008 205.849 286.935 203.607 286.583C203.272 286.544 202.937 286.506 202.602 286.471C191.504 285.185 180.11 280.059 172.953 271.282C171.749 269.759 170.663 268.186 169.703 266.498C169.581 266.29 169.46 266.081 169.334 265.866C168.588 264.556 167.979 263.208 167.433 261.803C167.347 261.584 167.347 261.584 167.259 261.361C166.23 258.621 165.62 255.738 165.174 252.853C165.15 252.699 165.126 252.546 165.102 252.388C163.739 243.382 165.071 234.254 170.448 226.7C170.57 226.527 170.57 226.527 170.694 226.35C179.04 214.53 193.479 208.153 207.332 205.499C211.07 204.862 214.79 204.526 218.579 204.523Z" fill="#FEDA7E"/>
<path d="M126.225 183.692C126.788 183.694 127.352 183.692 127.915 183.69C128.279 183.69 128.643 183.691 129.008 183.691C129.173 183.691 129.338 183.69 129.508 183.689C130.545 183.697 131.518 183.815 132.535 184.019C133.001 184.112 133.467 184.184 133.937 184.252C143.116 185.928 151.184 191.864 156.477 199.362C158.525 202.482 160.039 205.862 161.111 209.428C161.162 209.596 161.213 209.764 161.266 209.938C162.073 212.779 162.346 215.626 162.325 218.569C162.322 219.063 162.325 219.556 162.328 220.05C162.332 222.936 162.05 225.832 161.216 228.607C161.17 228.763 161.124 228.92 161.076 229.081C159.393 234.572 156.55 239.5 152.635 243.694C152.465 243.876 152.465 243.876 152.291 244.062C148.726 247.814 144.368 250.476 139.583 252.379C139.217 252.525 138.853 252.676 138.49 252.828C130.409 256.008 120.65 255.299 112.769 251.971C110.43 250.952 108.264 249.744 106.181 248.273C106.074 248.199 105.968 248.124 105.858 248.047C98.885 243.088 93.3352 234.952 91.8356 226.453C91.7363 225.841 91.6485 225.228 91.5656 224.614C91.4881 223.926 91.4881 223.926 91.2782 223.353C91.2604 223.088 91.2525 222.822 91.2512 222.557C91.2494 222.316 91.2494 222.316 91.2476 222.071C91.2474 221.898 91.2471 221.725 91.2469 221.546C91.2463 221.367 91.2457 221.187 91.2451 221.002C91.2441 220.62 91.2437 220.239 91.2437 219.858C91.2433 219.281 91.2399 218.705 91.2364 218.128C91.2311 216.305 91.2307 214.538 91.6508 212.752C91.679 212.621 91.7072 212.49 91.7362 212.354C92.9259 206.993 95.0152 202.069 98.3569 197.689C98.4789 197.527 98.6009 197.366 98.7266 197.2C99.4328 196.292 100.189 195.434 100.965 194.585C101.097 194.439 101.097 194.439 101.233 194.291C105.835 189.33 111.95 186.285 118.406 184.543C118.543 184.505 118.681 184.467 118.823 184.429C121.29 183.784 123.689 183.682 126.225 183.692Z" fill="#030A2F"/>
<path d="M310.94 161.703C311.303 162.042 311.663 162.384 312.023 162.726C312.177 162.868 312.332 163.011 312.491 163.157C318.947 169.29 322.361 178.378 322.671 187.138C322.861 194.853 320.445 202.873 315.748 209.033C315.601 209.235 315.454 209.437 315.307 209.639C311.454 214.835 306.105 218.758 300.101 221.121C299.957 221.178 299.813 221.236 299.665 221.295C296.238 222.635 292.614 223.502 288.924 223.539C288.759 223.541 288.594 223.544 288.424 223.547C278.106 223.69 269.142 220.257 261.67 213.131C256.238 207.826 253.075 200.901 251.753 193.513C251.699 193.213 251.637 192.915 251.566 192.619C251.444 191.886 251.443 191.162 251.437 190.42C251.435 190.255 251.433 190.09 251.431 189.921C251.426 189.387 251.424 188.854 251.423 188.32C251.422 188.139 251.422 187.958 251.421 187.772C251.42 185.046 251.561 182.49 252.226 179.835C252.281 179.588 252.335 179.34 252.389 179.092C253.819 173.069 257.23 167.604 261.478 163.172C261.69 162.95 261.899 162.726 262.108 162.501C265.433 159.019 269.81 156.573 274.207 154.729C274.399 154.648 274.591 154.568 274.789 154.485C276.078 153.983 277.418 153.695 278.766 153.396C279.39 153.276 279.39 153.276 279.796 153.055C290.985 151.061 302.507 154.007 310.94 161.703Z" fill="#030A2F"/>
<path d="M92.3959 288.257C92.6341 288.264 92.8722 288.272 93.1176 288.279C98.0045 288.461 103.193 289.165 107.857 290.675C108.015 290.725 108.172 290.775 108.335 290.827C112.913 292.314 117.143 294.562 120.648 297.888C121.026 298.246 121.414 298.575 121.817 298.904C126.195 302.72 129.889 308.976 131.515 314.479C131.566 314.648 131.616 314.816 131.668 314.989C133.326 320.717 133.073 326.218 130.339 331.531C128.491 334.834 125.893 337.802 122.399 339.365C122.226 339.442 122.226 339.442 122.049 339.521C120.124 340.333 118.262 340.604 116.182 340.574C115.972 340.574 115.762 340.575 115.545 340.575C114.465 340.568 113.533 340.512 112.514 340.143C112.739 339.424 113.008 338.745 113.327 338.061C115.138 334.142 117.123 328.162 115.924 323.872C115.541 322.994 114.969 322.463 114.191 321.918C113.033 321.533 111.665 321.521 110.558 322.034C109.592 322.951 108.991 323.674 108.895 325.042C108.875 325.307 108.875 325.307 108.855 325.578C108.841 325.766 108.827 325.955 108.812 326.149C108.431 330.779 107.375 336.088 103.661 339.271C100.069 342.126 95.733 342.727 91.2782 342.375C90.1561 342.172 89.1301 341.768 88.1114 341.259C88.2458 340.546 88.5654 339.963 88.8914 339.318C89.4548 338.156 89.8645 336.979 90.2187 335.738C90.2638 335.582 90.3088 335.425 90.3553 335.264C90.487 334.785 90.606 334.304 90.7193 333.82C90.7564 333.668 90.7934 333.515 90.8315 333.358C91.2083 331.524 91.148 329.652 91.1405 327.788C91.1385 327.195 91.1405 326.602 91.1428 326.01C91.1426 325.627 91.1421 325.245 91.1414 324.863C91.1425 324.601 91.1425 324.601 91.1437 324.334C91.1307 322.477 90.9365 320.993 89.6948 319.547C88.8268 318.825 87.9497 318.853 86.8576 318.873C85.9748 318.974 85.3887 319.249 84.7583 319.872C84.4459 320.297 84.2407 320.693 84.0132 321.174C83.9517 321.297 83.8902 321.42 83.8269 321.546C83.8129 321.843 83.8108 322.141 83.8146 322.438C83.8164 322.624 83.8183 322.809 83.8201 323.001C83.8242 323.304 83.8242 323.304 83.8284 323.613C83.8316 324.041 83.8348 324.47 83.8378 324.898C83.8435 325.573 83.8501 326.248 83.8588 326.923C83.8668 327.575 83.8711 328.227 83.8749 328.878C83.8801 329.175 83.8801 329.175 83.8854 329.478C83.8959 332.593 82.9495 335.937 80.8464 338.284C78.5586 340.525 75.4208 340.777 72.3993 340.769C69.2115 340.724 66.5109 339.893 64.1574 337.663C61.6888 334.942 60.3119 331.191 59.715 327.625C59.4627 326.157 59.1014 325.182 57.9104 324.254C56.8357 323.671 55.7172 323.571 54.5326 323.892C53.3556 324.399 52.8972 325.279 52.3452 326.382C52.247 327.844 52.5501 329.131 52.9157 330.543C53.0025 330.885 53.0025 330.885 53.0911 331.234C53.5314 332.922 54.0703 334.549 54.7138 336.17C54.9532 336.796 54.9532 336.796 54.9532 337.168C51.7566 337.168 48.5599 337.168 45.2665 337.168C45.2665 333.222 45.2665 333.222 45.4062 331.507C45.4223 331.306 45.4384 331.104 45.455 330.896C45.7583 327.374 46.3091 323.87 47.1293 320.43C47.1846 320.195 47.1846 320.195 47.241 319.955C48.7918 313.449 51.0252 307.183 55.1394 301.833C55.2535 301.681 55.3676 301.529 55.4851 301.373C58.3526 297.654 62.0849 295.05 66.3164 293.092C66.4601 293.025 66.6039 292.958 66.752 292.889C74.9005 289.125 83.5115 287.987 92.3959 288.257Z" fill="#FEBE1C"/>
<path d="M341.455 29.3835C341.618 29.4353 341.781 29.4871 341.948 29.5405C345.731 30.8865 348.202 34.2778 350.211 37.5663C350.335 37.7667 350.46 37.9672 350.588 38.1736C352.963 42.1362 354.545 46.684 355.701 51.1391C355.792 51.4883 355.887 51.8366 355.982 52.1848C356.137 52.7548 356.289 53.3255 356.438 53.8971C356.514 54.188 356.59 54.4787 356.667 54.7694C357.837 59.2197 358.73 63.7087 359.365 68.2656C359.46 68.9441 359.568 69.6165 359.697 70.2895C360.327 73.694 360.685 77.1459 361.066 80.5849C361.109 80.9728 361.152 81.3608 361.195 81.7487C361.631 85.6681 362.008 89.5872 362.268 93.5225C362.318 94.2887 362.376 95.0543 362.434 95.82C362.605 98.1021 362.757 100.367 362.692 102.657C361.648 102.013 360.685 101.289 359.734 100.518C358.092 99.1891 356.391 97.9457 354.681 96.7055C354.541 96.6036 354.401 96.5017 354.257 96.3967C349.217 92.7307 344.095 89.1903 338.738 86.001C338.352 85.771 337.968 85.539 337.585 85.3053C336.891 84.8842 336.194 84.47 335.494 84.0594C335.323 83.9585 335.151 83.8575 334.974 83.7535C325.606 78.2694 315.722 73.5814 305.434 70.0939C304.891 69.9071 304.35 69.714 303.809 69.5202C301.205 68.5924 298.592 67.7962 295.913 67.1163C295.338 66.9705 294.765 66.8224 294.192 66.6734C289.941 65.5711 285.632 64.4832 281.256 64.0347C280.814 63.9842 280.409 63.9101 279.982 63.7884C279.982 63.4165 279.982 63.4165 280.23 63.1673C280.348 63.0693 280.466 62.9712 280.588 62.8702C281.269 62.2922 281.933 61.6976 282.59 61.0918C283.953 59.8407 285.35 58.6348 286.757 57.434C287.468 56.8264 288.176 56.2153 288.882 55.6017C289.954 54.6698 291.035 53.7532 292.14 52.8604C292.609 52.4774 293.07 52.0877 293.53 51.6946C294.606 50.777 295.703 49.8978 296.83 49.0436C297.45 48.573 298.064 48.0935 298.677 47.6135C304.164 43.3251 309.882 39.3465 315.935 35.8926C316.066 35.8169 316.197 35.7413 316.333 35.6634C321.355 32.7787 326.66 30.463 332.328 29.1976C332.501 29.1554 332.674 29.1132 332.853 29.0697C335.564 28.5015 338.818 28.4916 341.455 29.3835Z" fill="#FFDA7E"/>
<path d="M197.459 70.4834C199.146 76.4337 200.522 82.4176 201.735 88.4809C201.862 89.1175 201.991 89.7536 202.122 90.3893C202.583 92.6338 202.975 94.8852 203.339 97.1472C203.367 97.3223 203.395 97.4974 203.424 97.6779C203.832 100.201 204.232 102.723 204.538 105.26C204.561 105.446 204.584 105.631 204.607 105.822C204.943 108.555 205.186 111.286 205.349 114.034C205.362 114.256 205.375 114.479 205.389 114.708C205.4 114.904 205.411 115.1 205.423 115.302C205.459 115.855 205.459 115.855 205.564 116.372C205.662 117.017 205.681 117.629 205.683 118.282C205.683 118.407 205.684 118.533 205.684 118.662C205.686 119.077 205.687 119.491 205.687 119.905C205.687 120.197 205.688 120.49 205.689 120.782C205.69 121.397 205.69 122.011 205.69 122.626C205.69 123.248 205.691 123.869 205.694 124.491C205.708 127.956 205.69 131.383 205.283 134.83C205.258 135.061 205.232 135.293 205.206 135.531C204.695 139.91 203.731 145.963 200.05 148.903C198.76 149.828 197.397 150.307 195.783 150.08C189.925 148.591 185.936 142.168 183.018 137.339C173.875 121.91 168.504 104.067 163.777 83.8385C163.745 83.6957 163.714 83.5529 163.682 83.4057C163.594 83.0052 163.509 82.6044 163.424 82.2033C163.377 81.981 163.33 81.7587 163.282 81.5297C163.18 80.8752 163.166 80.2574 163.183 79.596C169.085 77.4677 169.085 77.4677 171.724 76.7355C172.188 76.6024 172.648 76.4599 173.109 76.3161C175.519 75.5649 177.941 74.9184 180.393 74.3225C181.617 74.0215 182.833 73.6882 184.049 73.3568C186.431 72.7084 188.826 72.1631 191.242 71.6573C191.759 71.5482 192.276 71.4388 192.793 71.3294C193.11 71.2623 193.428 71.1955 193.745 71.1288C193.963 71.0831 193.963 71.0831 194.185 71.0365C194.326 71.007 194.466 70.9775 194.611 70.9472C194.905 70.8838 195.199 70.8178 195.493 70.7497C195.64 70.7155 195.787 70.6814 195.939 70.6463C196.135 70.5995 196.135 70.5995 196.336 70.5518C196.714 70.4834 196.714 70.4834 197.459 70.4834Z" fill="#E2A203"/>
<path d="M70.7449 121.391C71.9191 121.394 73.0932 121.392 74.2674 121.39C79.6385 121.382 84.9864 121.463 90.347 121.812C90.0029 122.561 89.504 123.061 88.9149 123.625C88.1627 124.35 87.4591 125.098 86.7755 125.888C86.1924 126.551 85.578 127.183 84.9681 127.821C83.9863 128.854 83.0493 129.897 82.1622 131.012C81.7495 131.517 81.3141 131.993 80.8699 132.47C80.0754 133.332 79.3475 134.229 78.6301 135.154C78.0873 135.854 77.5307 136.537 76.9579 137.213C75.0062 139.537 73.219 141.991 71.4554 144.459C71.2605 144.732 71.0652 145.004 70.8695 145.276C69.5713 147.082 68.3272 148.915 67.1333 150.792C66.8759 151.195 66.6158 151.596 66.3551 151.997C60.602 160.898 56.083 170.486 52.6248 180.486C52.5783 180.62 52.5317 180.754 52.4838 180.892C51.9282 182.498 51.4331 184.105 51.014 185.752C50.8215 186.47 50.5773 187.145 50.2963 187.832C49.4998 187.093 48.9087 186.291 48.3054 185.391C48.2026 185.239 48.0998 185.088 47.9939 184.931C47.6425 184.411 47.2928 183.89 46.9432 183.369C46.812 183.174 46.6808 182.979 46.5456 182.779C38.8936 171.422 31.4 159.492 27.7562 146.174C27.7114 146.013 27.6667 145.851 27.6206 145.685C27.0335 143.471 26.9408 141.28 26.9295 139.003C26.9277 138.8 26.9277 138.8 26.9259 138.593C26.9087 135.435 27.5232 132.79 29.619 130.367C29.71 130.258 29.801 130.149 29.8948 130.038C34.4419 125.055 42.6024 123.684 48.9225 122.707C49.0746 122.683 49.2267 122.66 49.3834 122.635C51.6069 122.294 53.8305 122.013 56.071 121.812C56.2463 121.795 56.4215 121.778 56.6021 121.761C61.3054 121.322 66.0259 121.383 70.7449 121.391Z" fill="#FFDA7E"/>
<path d="M218.328 214.269C219.605 215.461 220.147 216.822 220.239 218.559C220.368 222.832 218.589 226.449 215.826 229.634C214.296 231.244 212.499 232.44 210.499 233.395C211.678 238.67 211.678 238.67 214.97 242.694C218.408 244.623 222.592 245.219 226.438 244.252C226.903 244.114 227.365 243.967 227.823 243.81C227.94 243.77 228.057 243.73 228.177 243.689C230.885 242.743 233.214 241.309 235.461 239.533C235.62 239.408 235.778 239.283 235.942 239.155C236.589 238.642 237.23 238.124 237.862 237.593C238.042 237.443 238.221 237.293 238.406 237.138C238.65 236.932 238.65 236.932 238.899 236.721C239.935 235.955 240.911 235.85 242.167 235.999C243.4 236.342 244.155 237.135 244.775 238.231C245.091 239.205 245.171 240.282 244.803 241.249C243.895 242.771 242.194 244.239 240.625 245.059C239.856 245.703 239.811 246.432 239.641 247.39C239.565 247.763 239.488 248.135 239.41 248.508C239.354 248.782 239.354 248.782 239.297 249.062C238.295 253.73 236.035 257.984 233.039 261.663C232.961 261.76 232.882 261.858 232.801 261.958C232.139 262.766 231.417 263.414 230.618 264.081C230.486 264.196 230.354 264.311 230.219 264.429C227.312 266.881 223.86 268.389 220.186 269.288C219.973 269.344 219.76 269.4 219.541 269.457C214.72 270.524 209.042 270.211 204.538 268.172C204.261 268.053 204.261 268.053 203.979 267.93C199.977 266.084 197.099 262.702 195.41 258.688C195.353 258.486 195.353 258.486 195.294 258.281C195.179 257.882 195.07 257.552 194.851 257.2C194.323 256.983 193.968 256.883 193.419 256.805C192.015 256.528 191.026 256.183 190.127 255.01C189.531 254.013 189.423 252.939 189.635 251.807C190.126 250.705 190.812 249.953 191.871 249.389C192.391 249.216 192.739 249.167 193.28 249.157C193.499 249.149 193.499 249.149 193.723 249.142C194.252 249.199 194.662 249.315 195.165 249.481C196.162 249.792 197.072 249.845 198.111 249.831C198.274 249.833 198.436 249.835 198.604 249.837C199.963 249.831 201.364 249.715 202.405 248.773C202.755 248.24 203.098 247.707 203.42 247.157C203.519 247 203.618 246.842 203.719 246.679C205.354 243.69 204.055 239.433 203.337 236.313C203.234 235.813 203.234 235.813 203.234 235.255C203.126 235.258 203.018 235.261 202.907 235.264C197.907 235.382 194.104 233.735 190.421 230.291C188.728 228.533 187.69 226.526 187.679 224.074C187.717 222.243 187.99 220.737 189.205 219.302C193.45 215.236 200.801 213.747 206.401 212.753C206.699 212.695 206.699 212.695 207.003 212.636C210.698 212.002 215.304 211.756 218.328 214.269Z" fill="#232222"/>
<path d="M135.427 336.982C206.367 336.982 277.307 336.982 350.397 336.982C350.12 338.363 350.12 338.363 349.838 339.771C349.838 340.983 349.995 341.754 350.613 342.786C352.043 344.174 353.879 343.984 355.732 343.996C356.092 344.001 356.452 344.006 356.812 344.011C358.02 344.028 359.229 344.037 360.437 344.046C361.14 344.051 361.844 344.057 362.548 344.063C366.767 344.099 370.986 344.123 375.205 344.145C377.014 344.154 378.823 344.164 380.632 344.175C384.338 344.196 388.045 344.215 391.752 344.235C391.752 344.296 391.752 344.357 391.752 344.421C375.434 344.437 359.116 344.454 338.803 344.474C338.534 344.474 338.266 344.474 337.997 344.475C332.347 344.48 326.697 344.486 321.046 344.491C318.203 344.494 315.36 344.497 312.517 344.5C312.088 344.5 311.66 344.501 311.231 344.501C302.927 344.509 294.623 344.517 286.319 344.526C272.978 344.54 259.636 344.553 246.295 344.566C245.891 344.566 245.488 344.566 245.084 344.567C232.06 344.579 219.036 344.591 128.349 344.607C128.781 344.166 129.23 343.795 129.722 343.421C131.709 341.839 134.602 339.452 135.427 336.982Z" fill="#332C2A"/>
<path d="M423.792 256.642C426.351 258.866 428.373 262.04 428.677 265.478C428.78 267.787 428.817 269.904 427.273 271.764C427.049 271.996 426.82 272.225 426.586 272.449C426.491 272.544 426.396 272.639 426.297 272.736C419.273 279.227 406.246 280.31 397.177 280.295C396.981 280.295 396.981 280.295 396.781 280.295C393.416 280.287 389.59 280.203 386.722 278.215C386.606 278.135 386.49 278.055 386.37 277.973C384.827 276.786 383.794 274.724 383.496 272.817C382.967 268.44 383.833 264.591 386.397 260.957C389.116 257.532 392.442 255.094 396.409 253.294C396.524 253.242 396.639 253.189 396.758 253.134C405.16 249.353 416.762 250.651 423.792 256.642Z" fill="#FFDA7E"/>
<path d="M310.94 161.703C311.303 162.042 311.663 162.384 312.023 162.726C312.177 162.868 312.332 163.011 312.491 163.157C318.947 169.29 322.361 178.378 322.671 187.138C322.861 194.853 320.445 202.873 315.748 209.033C315.601 209.235 315.454 209.437 315.307 209.639C311.454 214.835 306.105 218.758 300.101 221.121C299.957 221.178 299.813 221.236 299.665 221.295C296.238 222.635 292.614 223.502 288.924 223.539C288.759 223.541 288.594 223.544 288.424 223.547C278.106 223.69 269.142 220.257 261.67 213.131C256.238 207.826 253.075 200.901 251.753 193.513C251.699 193.213 251.637 192.915 251.566 192.619C251.444 191.886 251.443 191.162 251.437 190.42C251.435 190.255 251.433 190.09 251.431 189.921C251.426 189.387 251.424 188.854 251.423 188.32C251.422 188.139 251.422 187.958 251.421 187.772C251.42 185.046 251.561 182.49 252.226 179.835C252.281 179.588 252.335 179.34 252.389 179.092C253.819 173.069 257.23 167.604 261.478 163.172C261.69 162.95 261.899 162.726 262.108 162.501C265.433 159.019 269.81 156.573 274.207 154.729C274.399 154.648 274.591 154.568 274.789 154.485C276.078 153.983 277.418 153.695 278.766 153.396C279.39 153.276 279.39 153.276 279.796 153.055C290.985 151.061 302.507 154.007 310.94 161.703ZM264.148 167.003C263.554 167.661 263.005 168.341 262.472 169.049C262.348 169.206 262.225 169.363 262.098 169.525C259.801 172.542 258.171 176.038 257.069 179.649C257.014 179.82 256.958 179.992 256.901 180.168C256.124 182.724 256.067 185.448 256.08 188.099C256.08 188.241 256.08 188.383 256.081 188.529C256.088 190.638 256.193 192.659 256.697 194.713C256.749 194.944 256.801 195.175 256.854 195.413C258.783 203.349 263.882 210.15 270.804 214.44C277.731 218.623 286.036 220.128 293.958 218.258C301.641 216.264 308.261 211.828 312.746 205.246C312.931 204.975 313.119 204.707 313.308 204.439C316.069 200.365 317.822 194.799 317.829 189.893C317.829 189.741 317.83 189.588 317.831 189.431C317.832 189.111 317.832 188.79 317.832 188.47C317.832 187.988 317.836 187.506 317.839 187.024C317.848 184.525 317.636 182.175 316.924 179.766C316.852 179.517 316.852 179.517 316.778 179.264C316.312 177.717 315.703 176.268 315.003 174.814C314.862 174.513 314.862 174.513 314.718 174.207C311.072 166.657 304.442 161.36 296.64 158.604C285.092 154.619 272.491 158.424 264.148 167.003Z" fill="#040C2E"/>
<path d="M126.225 183.692C126.788 183.694 127.352 183.692 127.915 183.69C128.279 183.69 128.643 183.691 129.008 183.691C129.173 183.691 129.338 183.69 129.508 183.689C130.545 183.697 131.518 183.815 132.535 184.019C133.001 184.112 133.467 184.184 133.937 184.252C143.116 185.928 151.184 191.864 156.477 199.362C158.525 202.482 160.039 205.862 161.111 209.428C161.162 209.596 161.213 209.764 161.266 209.938C162.073 212.779 162.346 215.626 162.325 218.569C162.322 219.063 162.325 219.556 162.328 220.05C162.332 222.936 162.05 225.832 161.216 228.607C161.17 228.763 161.124 228.92 161.076 229.081C159.393 234.572 156.55 239.5 152.635 243.694C152.465 243.876 152.465 243.876 152.291 244.062C148.726 247.814 144.368 250.476 139.583 252.379C139.217 252.525 138.853 252.676 138.49 252.828C130.409 256.008 120.65 255.299 112.769 251.971C110.43 250.952 108.264 249.744 106.181 248.273C106.074 248.199 105.968 248.124 105.858 248.047C98.885 243.088 93.3352 234.952 91.8356 226.453C91.7363 225.841 91.6485 225.228 91.5656 224.614C91.4881 223.926 91.4881 223.926 91.2782 223.353C91.2604 223.088 91.2525 222.822 91.2512 222.557C91.2494 222.316 91.2494 222.316 91.2476 222.071C91.2474 221.898 91.2471 221.725 91.2469 221.546C91.2463 221.367 91.2457 221.187 91.2451 221.002C91.2441 220.62 91.2437 220.239 91.2437 219.858C91.2433 219.281 91.2399 218.705 91.2364 218.128C91.2311 216.305 91.2307 214.538 91.6508 212.752C91.679 212.621 91.7072 212.49 91.7362 212.354C92.9259 206.993 95.0152 202.069 98.3569 197.689C98.4789 197.527 98.6009 197.366 98.7266 197.2C99.4328 196.292 100.189 195.434 100.965 194.585C101.097 194.439 101.097 194.439 101.233 194.291C105.835 189.33 111.95 186.285 118.406 184.543C118.543 184.505 118.681 184.467 118.823 184.429C121.29 183.784 123.689 183.682 126.225 183.692ZM117.893 189.459C117.663 189.53 117.663 189.53 117.428 189.603C114.309 190.594 111.463 192.092 108.789 193.969C108.603 194.098 108.418 194.227 108.227 194.36C102.778 198.338 99.046 203.948 97.053 210.335C96.9833 210.554 96.9137 210.774 96.8419 211C96.03 213.678 95.8588 216.295 95.8654 219.076C95.8655 219.235 95.8656 219.395 95.8657 219.56C95.873 222.064 96.004 224.461 96.6804 226.886C96.7203 227.03 96.7602 227.174 96.8014 227.323C98.2101 232.22 100.734 237.148 104.504 240.648C105.436 241.578 105.436 241.578 105.713 241.888C109.146 245.581 114.269 247.833 119.034 249.203C119.364 249.302 119.364 249.302 119.701 249.402C127.156 251.424 135.517 249.781 142.151 246.095C145.124 244.388 147.951 242.171 150.143 239.532C150.274 239.382 150.404 239.231 150.538 239.076C153.613 235.448 156.132 230.836 157.036 226.142C157.061 226.027 157.086 225.911 157.111 225.791C158.828 217.654 157.194 209.141 152.714 202.177C151.702 200.651 150.562 199.274 149.288 197.961C149.027 197.69 148.772 197.415 148.517 197.139C145.28 193.697 141.131 191.47 136.731 189.878C136.598 189.83 136.466 189.782 136.329 189.732C133.355 188.68 130.37 188.293 127.225 188.317C126.765 188.32 126.306 188.317 125.846 188.314C123.135 188.31 120.485 188.642 117.893 189.459Z" fill="#040C2E"/>
<path d="M151.82 83.8735C152.291 84.4387 152.529 84.955 152.754 85.6526C152.822 85.8594 152.889 86.0661 152.958 86.2791C153.028 86.5017 153.098 86.7244 153.171 86.9537C153.244 87.1848 153.318 87.4159 153.394 87.6541C154.141 90.0271 154.771 92.429 155.36 94.8459C155.394 94.9863 155.429 95.1268 155.464 95.2714C156.059 97.6902 156.596 100.114 157.048 102.564C157.079 102.736 157.111 102.908 157.144 103.085C158.151 108.619 158.758 114.322 158.526 119.952C158.522 120.089 158.518 120.226 158.514 120.368C158.385 124.517 157.854 129.406 154.905 132.587C153.909 133.508 152.903 133.828 151.56 133.777C148.448 133.371 145.935 130.567 144.089 128.222C139.988 122.842 137.179 116.5 134.892 110.177C134.841 110.037 134.791 109.898 134.739 109.754C134.048 107.837 133.413 105.908 132.819 103.959C132.761 103.768 132.703 103.578 132.643 103.382C131.993 101.245 131.399 99.0981 130.875 96.9265C130.827 96.7268 130.779 96.5271 130.729 96.3214C130.398 94.9195 130.398 94.9195 130.398 94.288C137.416 90.5259 144.491 86.9955 151.82 83.8735Z" fill="#E2A203"/>
<path d="M406.281 164.958C415.596 184.651 415.596 184.651 415.596 188.948C412.398 190.057 409.198 191.161 405.997 192.26C405.591 192.399 405.184 192.538 404.778 192.678C380.926 200.871 380.926 200.871 371.819 200.932C371.521 200.934 371.521 200.934 371.216 200.937C369.831 200.922 368.636 200.718 367.43 200.013C366.962 199.201 367.011 198.411 367.162 197.503C367.435 196.748 367.828 196.119 368.28 195.457C368.405 195.273 368.531 195.089 368.66 194.9C369.787 193.339 371.146 191.989 372.506 190.633C372.599 190.541 372.691 190.449 372.787 190.354C373.859 189.288 374.949 188.252 376.104 187.274C376.203 187.189 376.302 187.104 376.403 187.016C377.63 185.96 378.88 184.941 380.16 183.95C380.897 183.376 381.612 182.781 382.321 182.172C383.429 181.222 384.587 180.349 385.76 179.482C386.413 178.999 387.058 178.506 387.702 178.011C389.322 176.764 390.97 175.561 392.633 174.372C393.334 173.871 394.033 173.366 394.732 172.861C395.013 172.659 395.293 172.457 395.574 172.255C396.121 171.86 396.668 171.464 397.214 171.068C399.304 169.551 401.42 168.073 403.546 166.607C403.891 166.367 404.234 166.125 404.575 165.881C404.742 165.762 404.91 165.643 405.082 165.52C405.307 165.358 405.307 165.358 405.537 165.192C405.909 164.958 405.909 164.958 406.281 164.958Z" fill="#E2A203"/>
<path d="M236.206 66.0203C236.789 71.0026 237.279 75.9903 237.706 80.9881C237.743 81.418 237.779 81.8479 237.816 82.2778C238.151 86.1788 238.443 90.0708 238.546 93.9859C238.55 94.1301 238.554 94.2743 238.558 94.4228C238.959 109.841 238.959 109.841 236.474 113.289C236.034 113.733 235.685 113.966 235.064 114.064C233.488 114.003 232.204 112.919 231.162 111.818C225.147 104.752 221.293 95.4561 217.578 87.0351C217.473 86.7984 217.473 86.7984 217.366 86.5568C215.283 81.8441 213.258 77.1104 211.323 72.3348C210.925 71.3542 210.515 70.3791 210.098 69.4067C209.94 68.9958 209.94 68.9958 209.94 68.6239C209.756 68.5625 209.571 68.5011 209.381 68.4379C212.983 67.8557 216.589 67.4434 220.218 67.0803C221.061 66.9954 221.904 66.9046 222.746 66.8088C224.457 66.6141 226.168 66.4498 227.885 66.3118C228.176 66.288 228.467 66.2635 228.758 66.2382C231.244 66.022 233.712 65.9902 236.206 66.0203Z" fill="#E2A203"/>
<path d="M126.249 188.331C126.715 188.332 127.181 188.328 127.648 188.323C130.651 188.311 133.434 188.737 136.277 189.727C136.492 189.8 136.707 189.874 136.929 189.95C139.789 190.95 142.283 192.205 144.741 193.969C145.036 194.174 145.036 194.174 145.336 194.383C148.17 196.444 150.656 199.031 152.565 201.966C152.639 202.078 152.712 202.191 152.788 202.306C156.087 207.409 157.633 212.932 157.653 218.994C157.654 219.138 157.654 219.281 157.655 219.429C157.662 227.737 154.38 235.219 148.653 241.206C148.173 241.662 147.672 242.086 147.163 242.508C147.012 242.638 146.861 242.768 146.705 242.902C141.6 247.215 134.891 250.023 128.162 250.133C128.042 250.136 127.922 250.14 127.798 250.144C125.779 250.202 123.826 250.051 121.829 249.761C121.643 249.734 121.457 249.707 121.266 249.68C114.496 248.571 107.776 244.802 103.387 239.532C103.201 239.322 103.201 239.322 103.012 239.108C100.283 235.939 98.473 232.282 97.1657 228.341C97.0729 228.062 96.9765 227.784 96.8791 227.507C96.034 224.963 95.8419 222.288 95.8625 219.628C95.8655 219.169 95.8625 218.71 95.8589 218.251C95.8552 215.545 96.1875 212.899 97.0064 210.312C97.0539 210.158 97.1013 210.005 97.1502 209.847C98.1425 206.733 99.6436 203.892 101.524 201.222C101.653 201.037 101.782 200.852 101.915 200.661C105.9 195.221 111.519 191.496 117.917 189.506C118.137 189.436 118.357 189.367 118.583 189.295C121.127 188.527 123.604 188.324 126.249 188.331ZM118.289 194.155C118.058 194.236 117.828 194.316 117.59 194.399C112.934 196.139 108.809 199.115 105.808 203.082C105.698 203.226 105.588 203.371 105.474 203.519C103.699 205.944 102.28 208.665 101.465 211.559C101.38 211.858 101.289 212.156 101.193 212.452C99.7713 216.837 100.03 221.953 101.338 226.328C101.386 226.493 101.435 226.657 101.486 226.826C103.577 233.639 108.186 239.127 114.44 242.532C120.366 245.666 127.615 246.539 134.075 244.585C139.479 242.869 144.29 239.823 147.722 235.255C147.859 235.072 147.997 234.889 148.139 234.7C150.46 231.482 151.939 227.977 152.751 224.097C152.799 223.877 152.799 223.877 152.847 223.652C153.099 222.398 153.183 221.201 153.171 219.924C153.168 219.634 153.168 219.634 153.166 219.339C153.125 216.326 152.815 213.559 151.82 210.707C151.749 210.497 151.678 210.287 151.605 210.071C150.468 206.924 148.701 204.063 146.416 201.62C146.116 201.299 145.84 200.974 145.568 200.629C142.782 197.421 138.634 195.338 134.682 193.969C134.355 193.854 134.355 193.854 134.021 193.737C129.124 192.176 123.1 192.444 118.289 194.155Z" fill="#FCED00"/>
<path d="M296.491 158.565C296.686 158.631 296.881 158.696 297.082 158.764C304.696 161.396 311.243 167.011 314.818 174.264C315.218 175.118 315.581 175.985 315.935 176.86C316.005 177.026 316.075 177.193 316.148 177.365C317.218 180.058 317.825 183.052 317.829 185.946C317.829 186.099 317.83 186.252 317.831 186.41C317.832 186.732 317.832 187.055 317.832 187.377C317.832 187.863 317.836 188.348 317.839 188.834C317.848 191.309 317.581 193.601 316.913 195.992C316.839 196.256 316.839 196.256 316.764 196.525C314.506 204.448 309.21 210.962 302.092 215.054C301.014 215.649 299.94 216.2 298.797 216.658C298.673 216.707 298.55 216.757 298.423 216.808C292.215 219.262 285.316 219.755 278.864 217.96C278.695 217.914 278.527 217.868 278.352 217.821C270.729 215.693 263.982 210.305 260.097 203.442C259.394 202.174 258.757 200.882 258.187 199.548C258.105 199.358 258.023 199.168 257.938 198.972C257.48 197.855 257.129 196.734 256.848 195.562C256.805 195.382 256.805 195.382 256.761 195.199C256.261 192.993 256.077 190.817 256.089 188.562C256.091 188.148 256.089 187.735 256.087 187.321C256.084 184.866 256.214 182.362 256.93 179.998C256.97 179.859 257.011 179.721 257.053 179.578C258.193 175.798 259.999 172.14 262.472 169.049C262.556 168.942 262.641 168.836 262.728 168.726C267.652 162.605 274.931 158.216 282.809 157.31C287.388 156.87 292.112 157.083 296.491 158.565ZM279.749 162.575C279.616 162.615 279.484 162.654 279.347 162.695C272.461 164.83 266.849 169.648 263.461 175.965C261.81 179.127 260.743 182.551 260.622 186.135C260.613 186.419 260.601 186.703 260.587 186.987C260.4 191.295 261.198 195.273 263.03 199.176C263.094 199.313 263.157 199.45 263.222 199.592C266.171 205.852 271.656 210.552 278.119 212.938C278.648 213.119 279.18 213.288 279.714 213.45C279.835 213.487 279.956 213.524 280.08 213.562C282.259 214.188 284.457 214.311 286.712 214.298C286.847 214.298 286.982 214.297 287.121 214.297C294.064 214.256 300.284 211.803 305.317 206.987C305.467 206.849 305.618 206.71 305.773 206.567C309.053 203.452 311.119 199.476 312.387 195.182C312.505 194.786 312.629 194.392 312.767 194.003C313.383 192.055 313.394 189.973 313.385 187.948C313.385 187.822 313.384 187.696 313.384 187.566C313.375 185.672 313.272 183.903 312.768 182.067C312.704 181.813 312.64 181.559 312.576 181.306C310.79 174.534 306.316 168.797 300.318 165.216C296.258 162.879 291.763 161.721 287.089 161.748C286.676 161.75 286.264 161.748 285.851 161.745C283.753 161.743 281.763 161.97 279.749 162.575Z" fill="#FCED00"/>
<path d="M218.328 214.269C219.604 215.461 220.147 216.822 220.239 218.559C220.368 222.832 218.589 226.449 215.826 229.634C213.734 231.834 211.261 233.235 208.357 234.058C208.059 234.142 208.059 234.142 207.756 234.229C203.033 235.547 199.044 235.816 194.658 233.418C191.751 231.758 189.182 229.594 187.936 226.417C187.42 224.377 187.539 221.99 188.567 220.139C191.691 215.54 200.008 214.045 205.062 212.997C205.508 212.913 205.954 212.832 206.401 212.753C206.699 212.695 206.699 212.695 207.002 212.636C210.698 212.002 215.304 211.756 218.328 214.269Z" fill="#020A2F"/>
<path d="M47.1293 258.502C52.8628 258.471 58.5495 258.579 64.2672 259.036C64.5546 259.059 64.5546 259.059 64.8477 259.082C77.9957 260.129 77.9957 260.129 80.2875 262.593C81.2054 263.911 81.34 265.111 81.2189 266.684C80.5601 268.877 78.8179 269.866 76.9097 270.909C72.8963 272.921 68.1564 274.085 63.7028 274.589C63.0582 274.666 62.4196 274.767 61.7794 274.873C59.8876 275.187 57.9942 275.414 56.0859 275.599C55.6 275.646 55.1143 275.696 54.6286 275.746C53.0572 275.903 51.5052 276.042 49.9235 275.983C49.1492 272.069 48.4008 268.153 47.7929 264.209C47.758 263.985 47.758 263.985 47.7223 263.756C47.4506 262.006 47.2319 260.271 47.1293 258.502Z" fill="#E2A303"/>
<path d="M410.456 220.12C413.253 221.611 414.815 224.213 415.801 227.119C416.634 230.226 416.253 233.29 414.699 236.103C413.737 237.558 412.47 238.579 410.752 238.974C408.536 239.254 406.985 238.809 405.216 237.477C402.848 235.473 401.333 232.593 401.066 229.49C400.907 226.463 401.428 223.714 403.439 221.344C405.373 219.464 407.974 219.079 410.456 220.12Z" fill="#FFDA7E"/>
<path d="M385.887 226.416C388.186 227.83 389.66 229.765 390.634 232.28C390.711 232.475 390.788 232.671 390.867 232.872C391.606 235.638 391.562 239.166 390.175 241.705C389.911 242.114 389.631 242.497 389.33 242.88C389.215 243.049 389.099 243.218 388.981 243.391C388.063 244.362 386.828 245.036 385.499 245.187C383.215 245.241 381.732 244.705 379.958 243.205C378.452 241.762 377.56 240.178 376.849 238.231C376.783 238.055 376.717 237.88 376.649 237.699C376.295 236.499 376.256 235.288 376.255 234.046C376.253 233.915 376.251 233.783 376.248 233.647C376.242 231.307 377.241 229.018 378.828 227.303C380.802 225.488 383.494 225.144 385.887 226.416Z" fill="#FFDA7E"/>
<path d="M374.185 246.846C376.853 248.785 378.654 251.294 379.369 254.544C379.78 257.391 379.485 260.559 377.78 262.965C377.7 263.08 377.621 263.196 377.538 263.315C376.641 264.48 375.337 265.361 373.869 265.568C371.914 265.767 370.375 265.385 368.806 264.187C366.514 262.234 364.757 259.562 364.513 256.495C364.391 253.27 364.571 250.721 366.604 248.087C368.478 246.094 371.766 245.405 374.185 246.846Z" fill="#FFDA7E"/>
<path d="M431.439 232.317C434.081 233.927 435.827 236.537 436.599 239.514C437.166 242.444 436.972 245.441 435.528 248.087C434.455 249.526 433.36 250.564 431.616 251.063C429.612 251.269 427.869 250.981 426.19 249.842C423.77 247.867 422.355 245.009 421.929 241.95C421.662 238.948 422.035 236.155 423.938 233.714C425.931 231.536 428.773 231.055 431.439 232.317Z" fill="#FFDA7E"/>
<path d="M210.871 249.017C211.063 249.114 211.255 249.21 211.453 249.31C213.327 250.233 215.171 250.943 217.205 251.435C217.397 251.483 217.59 251.531 217.788 251.581C219.373 251.955 220.865 252.081 222.491 252.062C222.844 252.06 222.844 252.06 223.205 252.058C225.471 252.023 227.539 251.724 229.683 250.961C230.122 250.863 230.377 250.943 230.804 251.063C229.975 252.94 229.144 254.678 227.823 256.27C227.625 256.51 227.625 256.51 227.422 256.755C224.682 259.929 220.721 262.048 216.503 262.385C212.5 262.6 208.321 262.629 205.098 259.887C204.116 258.969 203.359 258.082 202.861 256.828C203.003 256.774 203.145 256.719 203.291 256.664C207.117 255.147 208.998 252.531 210.871 249.017Z" fill="#F6898C"/>
<path d="M298.116 170.61C299.75 171.596 300.624 173.034 301.218 174.814C301.375 176.963 301.145 178.707 299.731 180.386C298.387 181.743 296.797 182.445 294.896 182.52C293.282 182.475 291.791 181.861 290.6 180.765C289.157 179.213 288.593 177.553 288.668 175.445C288.87 173.608 289.779 172.301 291.159 171.095C293.327 169.731 295.788 169.495 298.116 170.61Z" fill="#FBFBFB"/>
<path d="M140.129 201.925C140.291 202.038 140.291 202.038 140.457 202.152C140.641 202.275 140.826 202.398 141.016 202.524C141.016 202.647 141.016 202.77 141.016 202.896C141.139 202.896 141.261 202.896 141.388 202.896C142.6 204.5 143.069 206.113 142.878 208.103C142.562 209.856 141.665 211.214 140.274 212.321C138.673 213.366 136.926 213.517 135.055 213.31C134.437 213.138 133.925 212.898 133.378 212.567C133.084 212.405 133.084 212.405 132.784 212.241C132.09 211.686 131.62 211.08 131.143 210.335C131.065 210.215 130.987 210.095 130.907 209.971C130.123 208.53 130.164 206.694 130.527 205.126C131.154 203.406 132.334 202.26 133.937 201.408C136.099 200.506 138.18 200.631 140.129 201.925Z" fill="#FBFBFC"/>
</g>
<defs>
<clipPath id="clip0_649_1316">
<rect width="490.854" height="350" fill="white"/>
</clipPath>
</defs>
</svg>
